<?xml version="1.0" encoding="utf-8"?>
<!-- Generator: Adobe Illustrator 25.0.1, SVG Export Plug-In . SVG Version: 6.00 Build 0)  -->
<svg version="1.1" id="레이어_1" xmlns="http://www.w3.org/2000/svg" xmlns:xlink="http://www.w3.org/1999/xlink" x="0px"
	 y="0px" viewBox="0 0 230.1 40" style="enable-background:new 0 0 230.1 40;" xml:space="preserve">
<style type="text/css">
	.st0{fill:#007BA0;stroke:#007BA0;stroke-miterlimit:10;}
	.st1{fill:none;stroke:#007BA0;stroke-miterlimit:10;}
	.st2{fill:#007BA0;}
</style>
<g id="Layer_1">
	<rect x="0.5" y="25.5" class="st0" width="4.6" height="4.5"/>
	<rect x="0.5" y="17.5" class="st0" width="4.6" height="4.5"/>
	<rect x="0.5" y="9.5" class="st1" width="4.6" height="4.6"/>
</g>
<g>
	<path class="st2" d="M12.7,28.2l2-2.4c1.6,1.6,3.8,2.6,5.9,2.6c2.7,0,4.2-1.3,4.2-3.1c0-2-1.5-2.6-3.5-3.5l-3.1-1.3
		c-2.1-0.9-4.5-2.6-4.5-5.8c0-3.5,3.1-6.1,7.3-6.1c2.6,0,5,1.1,6.7,2.8l-1.8,2.2c-1.4-1.2-2.9-2-4.9-2c-2.2,0-3.7,1.1-3.7,2.9
		c0,1.9,1.8,2.6,3.6,3.3l3,1.3c2.6,1.1,4.5,2.7,4.5,6c0,3.5-2.9,6.4-7.8,6.4C17.6,31.5,14.8,30.3,12.7,28.2z"/>
	<path class="st2" d="M31.3,20.1c0-7.2,4.4-11.5,10-11.5c2.8,0,4.9,1.3,6.3,2.8l-1.9,2.2c-1.1-1.2-2.5-2-4.3-2
		c-3.8,0-6.4,3.2-6.4,8.4c0,5.2,2.5,8.5,6.4,8.5c2,0,3.6-0.9,4.9-2.3l1.9,2.2c-1.8,2-4,3.2-6.9,3.2C35.6,31.5,31.3,27.3,31.3,20.1z"
		/>
	<path class="st2" d="M49.7,20c0-7.1,3.9-11.4,9.6-11.4s9.6,4.3,9.6,11.4s-4,11.5-9.6,11.5S49.7,27.1,49.7,20z M65.3,20
		c0-5.2-2.4-8.3-6.1-8.3s-6,3.1-6,8.3s2.4,8.5,6,8.5S65.3,25.1,65.3,20z"/>
	<path class="st2" d="M73.5,9h6.7c4.9,0,8.4,1.7,8.4,6.7c0,4.8-3.5,7-8.3,7H77v8.4h-3.5V9z M80,19.9c3.5,0,5.2-1.3,5.2-4.3
		c0-2.9-1.8-3.9-5.3-3.9H77v8.1H80z"/>
	<path class="st2" d="M92.9,9h13v2.9h-9.6v6.1h8.1V21h-8.1v7.1h9.9v2.9H92.9V9z"/>
	<path class="st2" d="M117.6,9h13v2.9h-9.6v6.1h8.1V21h-8.1v7.1h9.9v2.9h-13.4V9z"/>
	<path class="st2" d="M135.6,9h3.6l7.3,13l2.3,4.7h0.2c-0.2-2.3-0.5-5-0.5-7.4V9h3.3v22.1h-3.6l-7.3-13l-2.3-4.6h-0.2
		c0.2,2.3,0.5,4.8,0.5,7.2v10.4h-3.3V9z"/>
	<path class="st2" d="M157.7,9h13v2.9h-9.6v6.1h8.1V21h-8.1v7.1h9.9v2.9h-13.4V9z"/>
	<path class="st2" d="M187.7,31.1l-5-8.9h-3.6v8.9h-3.5V9h7.2c4.6,0,8,1.6,8,6.4c0,3.4-1.8,5.5-4.6,6.3l5.4,9.4H187.7z M179.1,19.4
		h3.3c3.2,0,4.9-1.3,4.9-4s-1.7-3.6-4.9-3.6h-3.3V19.4z"/>
	<path class="st2" d="M194.1,20.1c0-7.2,4.4-11.5,10.3-11.5c3.1,0,5.2,1.4,6.6,2.8l-1.9,2.2c-1.1-1.1-2.4-2-4.6-2
		c-4.1,0-6.8,3.2-6.8,8.4c0,5.2,2.4,8.5,7,8.5c1.3,0,2.7-0.4,3.5-1.1v-5.2h-4.4v-2.9h7.5v9.6c-1.5,1.5-4,2.6-7,2.6
		C198.4,31.5,194.1,27.3,194.1,20.1z"/>
	<path class="st2" d="M220,22.7L213.3,9h3.7l2.5,5.8c0.7,1.6,1.3,3.2,2.1,4.9h0.1c0.7-1.7,1.4-3.2,2.1-4.9l2.6-5.8h3.6l-6.7,13.7
		v8.4H220V22.7z"/>
</g>
</svg>
